<svg width="1051" height="272" viewBox="0 0 1051 272" fill="none" xmlns="http://www.w3.org/2000/svg">
<g clip-path="url(#clip0_132_9)">
<path d="M24.125 72.1667C24.125 63.2841 31.3257 56.0834 40.2083 56.0834H56.2917C59.2212 56.0834 61.9677 56.8666 64.3333 58.2351C66.6989 56.8666 69.4455 56.0834 72.375 56.0834H88.4583C94.3078 56.0834 99.428 59.2063 102.243 63.8759C103.926 62.528 105.91 61.4987 108.127 60.9048L123.662 56.7421C132.243 54.4431 141.061 59.5348 143.36 68.1147L176.662 192.397C178.961 200.977 173.87 209.796 165.289 212.095L149.754 216.258C141.174 218.556 132.355 213.465 130.056 204.886L104.542 109.664V200.833C104.542 209.716 97.3412 216.917 88.4583 216.917H72.375C69.4455 216.917 66.6989 216.133 64.3333 214.765C61.9677 216.133 59.2212 216.917 56.2917 216.917H40.2083C31.3257 216.917 24.125 209.716 24.125 200.833V72.1667Z" fill="#09244B"/>
</g>
<path d="M243.257 190C240.489 190 239.104 188.616 239.104 185.847V57.9399C239.104 55.1714 240.489 53.7871 243.257 53.7871H251.194C253.962 53.7871 255.347 55.1714 255.347 57.9399V99.0068C255.347 100.914 255.285 102.791 255.162 104.636H255.347C258.73 100.576 262.545 97.3765 266.79 95.0386C271.035 92.7007 276.695 91.5317 283.771 91.5317C296.075 91.5317 305.427 96.5767 311.825 106.667C318.224 116.695 321.423 128.323 321.423 141.55C321.423 154.778 318.224 166.437 311.825 176.526C305.427 186.555 296.075 191.569 283.771 191.569C276.695 191.569 271.035 190.4 266.79 188.062C262.545 185.724 258.73 182.525 255.347 178.464H255.162L254.608 185.847C254.424 188.616 253.224 190 251.009 190H243.257ZM255.347 152.163C255.347 161.392 257.531 168.282 261.899 172.835C266.329 177.326 271.866 179.572 278.51 179.572C287.862 179.572 294.476 176.065 298.352 169.051C302.289 162.038 304.258 152.871 304.258 141.55C304.258 130.23 302.289 121.063 298.352 114.049C294.476 107.036 287.862 103.529 278.51 103.529C271.866 103.529 266.329 105.805 261.899 110.358C257.531 114.849 255.347 121.709 255.347 130.938V152.163ZM333.424 141.55C333.424 127.092 337.238 115.157 344.867 105.744C352.557 96.269 363.785 91.5317 378.551 91.5317C393.317 91.5317 404.514 96.269 412.143 105.744C419.833 115.157 423.678 127.092 423.678 141.55C423.678 156.008 419.833 167.975 412.143 177.449C404.514 186.862 393.317 191.569 378.551 191.569C363.785 191.569 352.557 186.862 344.867 177.449C337.238 167.975 333.424 156.008 333.424 141.55ZM350.589 141.55C350.589 154.47 353.142 164.037 358.248 170.251C363.355 176.465 370.122 179.572 378.551 179.572C386.98 179.572 393.747 176.465 398.854 170.251C403.96 164.037 406.513 154.47 406.513 141.55C406.513 128.63 403.96 119.063 398.854 112.85C393.747 106.636 386.98 103.529 378.551 103.529C370.122 103.529 363.355 106.636 358.248 112.85C353.142 119.063 350.589 128.63 350.589 141.55ZM435.587 141.55C435.587 127.092 439.401 115.157 447.03 105.744C454.721 96.269 465.949 91.5317 480.714 91.5317C495.48 91.5317 506.677 96.269 514.306 105.744C521.997 115.157 525.842 127.092 525.842 141.55C525.842 156.008 521.997 167.975 514.306 177.449C506.677 186.862 495.48 191.569 480.714 191.569C465.949 191.569 454.721 186.862 447.03 177.449C439.401 167.975 435.587 156.008 435.587 141.55ZM452.752 141.55C452.752 154.47 455.305 164.037 460.412 170.251C465.518 176.465 472.286 179.572 480.714 179.572C489.143 179.572 495.911 176.465 501.017 170.251C506.124 164.037 508.677 154.47 508.677 141.55C508.677 128.63 506.124 119.063 501.017 112.85C495.911 106.636 489.143 103.529 480.714 103.529C472.286 103.529 465.518 106.636 460.412 112.85C455.305 119.063 452.752 128.63 452.752 141.55ZM547.994 190C544.303 190 542.457 188.154 542.457 184.463V59.3242C542.457 55.6328 544.303 53.7871 547.994 53.7871H562.76C566.451 53.7871 568.297 55.6328 568.297 59.3242V127.154C568.297 129.615 568.174 132.076 567.928 134.537H568.297L597.551 96.8843C599.52 94.3618 601.919 93.1006 604.749 93.1006H619.884C625.544 93.1006 626.498 95.377 622.745 99.9297L594.875 133.614L627.175 183.171C630.128 187.724 629.174 190 624.314 190H608.533C605.457 190 602.934 188.4 600.966 185.201L580.017 151.517L568.297 165.637V184.463C568.297 188.154 566.451 190 562.76 190H547.994ZM639.729 183.54C636.714 181.387 635.884 179.08 637.237 176.619L641.944 168.036C643.605 164.96 646.189 164.591 649.696 166.929C653.203 169.267 657.325 170.989 662.062 172.097C666.861 173.204 671.229 173.758 675.167 173.758C677.935 173.758 680.519 173.481 682.919 172.927C685.318 172.374 687.348 171.297 689.009 169.697C690.671 168.098 691.501 165.76 691.501 162.684C691.501 160.838 691.009 159.269 690.025 157.977C689.04 156.685 687.779 155.701 686.241 155.024C684.703 154.347 683.072 153.793 681.35 153.363C679.073 152.809 675.782 151.886 671.475 150.594C667.23 149.302 663.139 147.795 659.201 146.072C655.941 144.657 652.741 142.688 649.604 140.166C646.527 137.582 644.251 134.721 642.775 131.583C641.359 128.446 640.652 124.57 640.652 119.956C640.652 113.742 642.436 108.297 646.005 103.621C649.634 98.9453 654.31 95.7153 660.032 93.9312C665.754 92.147 672.89 91.2549 681.442 91.2549C687.225 91.2549 692.855 92.0854 698.33 93.7466C703.806 95.4077 707.713 96.9766 710.05 98.4531C713.742 100.791 714.665 103.283 712.819 105.928L707.19 114.142C705.467 116.603 702.698 116.787 698.884 114.695C695.992 113.096 693.131 111.804 690.301 110.819C687.533 109.835 684.426 109.343 680.981 109.343C678.643 109.343 676.397 109.589 674.244 110.081C672.09 110.573 670.245 111.496 668.707 112.85C667.23 114.203 666.492 115.987 666.492 118.202C666.492 120.54 667.169 122.386 668.522 123.739C669.937 125.031 671.537 125.985 673.321 126.6C675.167 127.215 676.92 127.8 678.581 128.354C682.026 129.461 685.503 130.538 689.009 131.583C692.516 132.568 696.085 133.768 699.714 135.183C702.852 136.413 705.898 138.167 708.851 140.443C711.804 142.719 713.957 145.611 715.311 149.118C716.664 152.625 717.341 156.624 717.341 161.115C717.341 167.083 715.557 172.62 711.988 177.726C708.42 182.833 703.714 186.462 697.869 188.616C692.024 190.769 685.226 191.846 677.474 191.846C668.799 191.846 661.416 191.23 655.325 190C649.234 188.77 644.036 186.616 639.729 183.54ZM726.573 105.282C723.805 105.282 722.42 104.206 722.42 102.052V96.3306C722.42 94.1772 723.805 93.1006 726.573 93.1006H737.463V84.7949C737.463 83.5645 737.77 82.3955 738.386 81.2881L744.846 69.5679C746.015 67.4146 746.968 66.3379 747.706 66.3379H750.936C752.782 66.3379 753.705 67.4146 753.705 69.5679V93.1006H773.362C776.13 93.1006 777.515 94.1772 777.515 96.3306V102.052C777.515 104.206 776.13 105.282 773.362 105.282H753.705V164.068C753.705 170.528 754.659 174.742 756.566 176.711C758.535 178.618 760.872 179.572 763.579 179.572C765.671 179.572 768.163 178.957 771.055 177.726C774.008 176.496 776.038 175.45 777.145 174.588C778.253 173.727 779.114 174.004 779.729 175.419L782.775 182.525C783.267 183.755 782.898 184.74 781.667 185.478C779.268 186.893 775.761 188.277 771.147 189.631C766.533 190.923 761.918 191.569 757.304 191.569C750.906 191.569 745.984 189.262 742.538 184.647C739.155 180.033 737.463 173.512 737.463 165.083V105.282H726.573ZM792.192 141.55C792.192 127.092 796.006 115.157 803.635 105.744C811.325 96.269 822.553 91.5317 837.319 91.5317C852.085 91.5317 863.282 96.269 870.911 105.744C878.601 115.157 882.446 127.092 882.446 141.55C882.446 156.008 878.601 167.975 870.911 177.449C863.282 186.862 852.085 191.569 837.319 191.569C822.553 191.569 811.325 186.862 803.635 177.449C796.006 167.975 792.192 156.008 792.192 141.55ZM809.357 141.55C809.357 154.47 811.91 164.037 817.016 170.251C822.123 176.465 828.89 179.572 837.319 179.572C845.748 179.572 852.515 176.465 857.622 170.251C862.728 164.037 865.281 154.47 865.281 141.55C865.281 128.63 862.728 119.063 857.622 112.85C852.515 106.636 845.748 103.529 837.319 103.529C828.89 103.529 822.123 106.636 817.016 112.85C811.91 119.063 809.357 128.63 809.357 141.55ZM903.768 190C900.999 190 899.615 188.616 899.615 185.847V97.2534C899.615 94.4849 900.999 93.1006 903.768 93.1006H911.52C914.289 93.1006 915.673 94.4849 915.673 97.2534V108.328H916.042C918.995 102.791 922.471 98.6069 926.47 95.7769C930.469 92.9468 935.453 91.5317 941.42 91.5317C945.358 91.5317 948.126 91.8701 949.726 92.5469C951.141 93.1006 951.664 94.0234 951.295 95.3154L949.172 102.883C948.865 103.99 948.065 104.421 946.773 104.175C944.62 103.744 942.589 103.529 940.682 103.529C933.484 103.529 927.547 106.79 922.871 113.311C918.195 119.771 915.857 128.6 915.857 139.797V185.847C915.857 188.616 914.473 190 911.705 190H903.768ZM957.205 141.55C957.205 126.292 961.019 114.142 968.648 105.098C976.277 96.0537 987.198 91.5317 1001.41 91.5317C1013.22 91.5317 1023 95.6846 1030.76 103.99C1038.57 112.234 1042.48 125.431 1042.48 143.581C1042.48 146.349 1041.22 147.733 1038.69 147.733H974.37C975.416 159.607 978.615 167.882 983.968 172.558C989.32 177.172 995.38 179.479 1002.15 179.479C1009.28 179.479 1014.76 178.28 1018.57 175.88C1022.39 173.481 1025.19 171.112 1026.97 168.774C1028.94 166.19 1030.85 165.698 1032.69 167.298L1038.14 172.004C1039.55 173.235 1039.55 174.927 1038.14 177.08C1036.97 178.864 1033.62 181.725 1028.08 185.663C1022.6 189.6 1013.96 191.569 1002.15 191.569C986.767 191.569 975.416 187.047 968.094 178.003C960.835 168.959 957.205 156.808 957.205 141.55ZM974.001 135.736H1026.14C1025.9 127.123 1023.68 119.586 1019.5 113.126C1015.31 106.605 1009.16 103.344 1001.04 103.344C993.904 103.344 987.844 105.744 982.86 110.542C977.877 115.28 974.924 123.678 974.001 135.736Z" fill="#09244B"/>
<defs>
<clipPath id="clip0_132_9">
<rect width="193" height="193" fill="white" transform="translate(0 40)"/>
</clipPath>
</defs>
</svg>
